<svg xmlns="http://www.w3.org/2000/svg" width="76.312" height="65.894" viewBox="0 0 76.312 65.894">
  <path id="noun-payment-1800088" d="M100.776,122.5a4.541,4.541,0,0,0-4.526,4.526v27.153a4.541,4.541,0,0,0,4.526,4.526h1.131v1.131a4.541,4.541,0,0,0,4.525,4.526h49.781a4.541,4.541,0,0,0,4.526-4.526V132.682a4.541,4.541,0,0,0-4.526-4.526h-1.131v-1.131a4.541,4.541,0,0,0-4.526-4.526Zm0,2.263h49.781a2.233,2.233,0,0,1,2.263,2.263v2.263H98.513v-2.263A2.233,2.233,0,0,1,100.776,124.763Zm54.306,5.657h1.131a2.233,2.233,0,0,1,2.263,2.263v27.153a2.233,2.233,0,0,1-2.263,2.263H106.432a2.233,2.233,0,0,1-2.263-2.263V158.7h46.386a4.541,4.541,0,0,0,4.526-4.526Zm-56.569,1.131h54.306v2.263H98.513Zm0,4.526h54.306v18.1a2.233,2.233,0,0,1-2.263,2.263H100.776a2.233,2.233,0,0,1-2.263-2.263Zm3.279,6.788a1.133,1.133,0,1,0,.115,2.263h12.445a1.131,1.131,0,1,0,0-2.263H101.907a1.1,1.1,0,0,0-.115,0Zm.018,4.525a1.133,1.133,0,0,0,.115,2.263h8.07a1.131,1.131,0,1,0,0-2.263h-8.07A1.1,1.1,0,0,0,101.81,147.39Zm12.427,0a1.133,1.133,0,1,0,.115,2.263H115.5a1.131,1.131,0,1,0,0-2.263h-1.15a1.1,1.1,0,0,0-.115,0Z" transform="matrix(0.899, -0.438, 0.438, 0.899, -140.209, -39.639)" fill="#fff"/>
</svg>
