<svg xmlns="http://www.w3.org/2000/svg" xmlns:xlink="http://www.w3.org/1999/xlink" width="70.773" height="59.492" viewBox="0 0 70.773 59.492">
  <defs>
    <linearGradient id="linear-gradient" x1="0.969" y1="0.806" x2="0.003" y2="0.106" gradientUnits="objectBoundingBox">
      <stop offset="0" stop-color="#a101fe"/>
      <stop offset="1" stop-color="#fe402a"/>
    </linearGradient>
  </defs>
  <path id="Bill_Payment" data-name="Bill Payment" d="M100.508,122.5a4.166,4.166,0,0,0-4.258,4.038v24.227a4.166,4.166,0,0,0,4.258,4.038h1.064v1.009a4.166,4.166,0,0,0,4.258,4.038h46.835a4.166,4.166,0,0,0,4.258-4.038V131.585a4.166,4.166,0,0,0-4.258-4.038H151.6v-1.009a4.166,4.166,0,0,0-4.258-4.038Zm0,2.019h46.835a2.049,2.049,0,0,1,2.129,2.019v2.019H98.379v-2.019A2.049,2.049,0,0,1,100.508,124.519Zm51.092,5.047h1.064a2.049,2.049,0,0,1,2.129,2.019v24.227a2.049,2.049,0,0,1-2.129,2.019H105.83a2.049,2.049,0,0,1-2.129-2.019V154.8h43.641a4.166,4.166,0,0,0,4.258-4.038Zm-53.221,1.009h51.092v2.019H98.379Zm0,4.038h51.092v16.151a2.049,2.049,0,0,1-2.129,2.019H100.508a2.049,2.049,0,0,1-2.129-2.019Zm3.085,6.057a1.033,1.033,0,0,0-1.01,1.061,1.046,1.046,0,0,0,1.119.958h11.709a1.1,1.1,0,0,0,.763-.291.974.974,0,0,0,0-1.438,1.1,1.1,0,0,0-.763-.291H101.572a1.078,1.078,0,0,0-.108,0Zm.017,4.038a1.033,1.033,0,0,0-1.01,1.061,1.046,1.046,0,0,0,1.119.958h7.592a1.1,1.1,0,0,0,.763-.291.974.974,0,0,0,0-1.438,1.1,1.1,0,0,0-.763-.291h-7.592Q101.535,144.705,101.481,144.708Zm11.692,0a1.033,1.033,0,0,0-1.01,1.061,1.046,1.046,0,0,0,1.119.958h1.081a1.1,1.1,0,0,0,.762-.291.973.973,0,0,0,0-1.438,1.1,1.1,0,0,0-.762-.291h-1.082q-.054,0-.108,0Z" transform="translate(-139.003 -44.705) rotate(-25)" fill="url(#linear-gradient)"/>
</svg>
