<svg xmlns="http://www.w3.org/2000/svg" width="53.2" height="53.2" viewBox="0 0 53.2 53.2">
  <path id="Check_Balances" data-name="Check Balances" d="M122.854,26.25a26.6,26.6,0,1,0,26.6,26.6,26.615,26.615,0,0,0-26.6-26.6Zm0,1.836a24.765,24.765,0,1,1-24.768,24.76A24.744,24.744,0,0,1,122.854,28.086Zm11.719,14.925a.92.92,0,0,0-.627.315L119.225,60.418l-7.5-7.739a.917.917,0,1,0-1.321,1.272l8.2,8.465h0a.918.918,0,0,0,1.354-.041l15.371-17.849a.917.917,0,0,0-.761-1.513Z" transform="translate(-96.25 -26.25)" fill="#fff" fill-rule="evenodd"/>
</svg>
