<svg id="Group_8411" data-name="Group 8411" xmlns="http://www.w3.org/2000/svg" xmlns:xlink="http://www.w3.org/1999/xlink" width="229.2" height="65.774" viewBox="0 0 229.2 65.774">
  <defs>
    <clipPath id="clip-path">
      <rect id="Rectangle_2584" data-name="Rectangle 2584" width="229.2" height="65.774" fill="none"/>
    </clipPath>
  </defs>
  <g id="Group_8410" data-name="Group 8410" transform="translate(0 0)" clip-path="url(#clip-path)">
    <path id="Path_5506" data-name="Path 5506" d="M229.2,59.18a6.593,6.593,0,0,1-6.6,6.593H6.609A6.6,6.6,0,0,1,0,59.18V6.6A6.61,6.61,0,0,1,6.609,0H222.6a6.6,6.6,0,0,1,6.6,6.6Z" transform="translate(0 0)"/>
    <path id="Path_5507" data-name="Path 5507" d="M41.745,24.242A9.979,9.979,0,0,1,46.5,15.869a10.221,10.221,0,0,0-8.05-4.352c-3.386-.356-6.671,2.026-8.4,2.026-1.759,0-4.416-1.992-7.278-1.933a10.717,10.717,0,0,0-9.02,5.5c-3.9,6.753-.992,16.678,2.746,22.136,1.87,2.673,4.054,5.658,6.913,5.553,2.8-.115,3.842-1.783,7.218-1.783,3.345,0,4.326,1.783,7.242,1.716,3-.048,4.892-2.685,6.7-5.383a22.091,22.091,0,0,0,3.062-6.237,9.646,9.646,0,0,1-5.887-8.872" transform="translate(8.587 8.283)" fill="#fff"/>
    <path id="Path_5508" data-name="Path 5508" d="M28.8,12.366a9.822,9.822,0,0,0,2.248-7.039,10.006,10.006,0,0,0-6.469,3.347,9.347,9.347,0,0,0-2.307,6.779A8.264,8.264,0,0,0,28.8,12.366" transform="translate(16.028 3.843)" fill="#fff"/>
    <path id="Path_5509" data-name="Path 5509" d="M60.861,40.215H56.951L54.81,33.486H47.366l-2.04,6.729H41.52l7.375-22.909H53.45Zm-6.7-9.552-1.937-5.982q-.307-.917-1.155-4.316H51q-.338,1.462-1.088,4.316l-1.9,5.982Z" transform="translate(29.955 12.486)" fill="#fff"/>
    <path id="Path_5510" data-name="Path 5510" d="M70.439,29.217a9.387,9.387,0,0,1-2.277,6.66A6.659,6.659,0,0,1,63.1,38.053a5.064,5.064,0,0,1-4.691-2.345h-.069v8.7h-3.67V26.6q0-2.649-.136-5.438h3.228l.2,2.618h.069a6.53,6.53,0,0,1,10.451-.647,9.1,9.1,0,0,1,1.956,6.085m-3.739.134a6.8,6.8,0,0,0-1.088-3.977,3.758,3.758,0,0,0-3.2-1.632,3.817,3.817,0,0,0-2.463.9,4.176,4.176,0,0,0-1.444,2.364,4.8,4.8,0,0,0-.17,1.119V30.88a4.413,4.413,0,0,0,1.105,3.044,3.663,3.663,0,0,0,2.871,1.241,3.757,3.757,0,0,0,3.228-1.6A7.031,7.031,0,0,0,66.7,29.351" transform="translate(39.342 15.022)" fill="#fff"/>
    <path id="Path_5511" data-name="Path 5511" d="M81.475,29.217a9.38,9.38,0,0,1-2.279,6.66,6.653,6.653,0,0,1-5.063,2.176,5.06,5.06,0,0,1-4.689-2.345h-.069v8.7H65.7V26.6q0-2.649-.136-5.438H68.8l.2,2.618h.069a6.532,6.532,0,0,1,10.453-.647,9.127,9.127,0,0,1,1.952,6.085m-3.739.134a6.8,6.8,0,0,0-1.09-3.977,3.752,3.752,0,0,0-3.193-1.632,3.821,3.821,0,0,0-2.465.9,4.174,4.174,0,0,0-1.443,2.364,4.9,4.9,0,0,0-.17,1.119V30.88a4.427,4.427,0,0,0,1.1,3.044,3.671,3.671,0,0,0,2.875,1.241,3.757,3.757,0,0,0,3.228-1.6,7.031,7.031,0,0,0,1.157-4.216" transform="translate(47.306 15.022)" fill="#fff"/>
    <path id="Path_5512" data-name="Path 5512" d="M93.105,33.931a6.106,6.106,0,0,1-2.035,4.758A9.018,9.018,0,0,1,84.83,40.7a10.924,10.924,0,0,1-5.937-1.427l.85-3.059a10.061,10.061,0,0,0,5.306,1.463,5.016,5.016,0,0,0,3.231-.936,3.058,3.058,0,0,0,1.153-2.5,3.191,3.191,0,0,0-.952-2.348,8.849,8.849,0,0,0-3.161-1.771q-6.017-2.244-6.015-6.569a5.813,5.813,0,0,1,2.109-4.629,8.313,8.313,0,0,1,5.609-1.8,11.119,11.119,0,0,1,5.2,1.088L91.3,21.191a9.02,9.02,0,0,0-4.385-1.054,4.438,4.438,0,0,0-3.023.952,2.72,2.72,0,0,0-.918,2.074,2.8,2.8,0,0,0,1.052,2.243,11.888,11.888,0,0,0,3.333,1.768,11.307,11.307,0,0,1,4.35,2.785,5.819,5.819,0,0,1,1.391,3.971" transform="translate(56.919 12.345)" fill="#fff"/>
    <path id="Path_5513" data-name="Path 5513" d="M98.414,25.5H94.369v8.02q0,3.06,2.142,3.059a6.528,6.528,0,0,0,1.63-.17l.1,2.787a8.316,8.316,0,0,1-2.854.406,4.4,4.4,0,0,1-3.4-1.326q-1.221-1.327-1.224-4.453V25.494h-2.41V22.74h2.41V19.715l3.6-1.088V22.74h4.045V25.5" transform="translate(63.745 13.439)" fill="#fff"/>
    <path id="Path_5514" data-name="Path 5514" d="M111.582,29.283a9.062,9.062,0,0,1-2.176,6.254,7.769,7.769,0,0,1-6.053,2.515,7.387,7.387,0,0,1-5.793-2.412A8.784,8.784,0,0,1,95.4,29.557a8.973,8.973,0,0,1,2.226-6.287,7.7,7.7,0,0,1,6-2.448,7.544,7.544,0,0,1,5.846,2.413,8.684,8.684,0,0,1,2.111,6.048m-3.808.119a7.43,7.43,0,0,0-.985-3.92,3.625,3.625,0,0,0-3.295-1.976,3.68,3.68,0,0,0-3.365,1.976,7.573,7.573,0,0,0-.985,3.989,7.42,7.42,0,0,0,.985,3.918,3.751,3.751,0,0,0,6.628-.034,7.457,7.457,0,0,0,1.017-3.952" transform="translate(68.829 15.022)" fill="#fff"/>
    <path id="Path_5515" data-name="Path 5515" d="M115.435,24.388a6.373,6.373,0,0,0-1.157-.1,3.468,3.468,0,0,0-2.992,1.463,5.5,5.5,0,0,0-.918,3.262v8.668H106.7l.034-11.317q0-2.856-.138-5.2h3.2l.134,3.161h.1a5.649,5.649,0,0,1,1.835-2.617,4.438,4.438,0,0,1,2.653-.885,5.892,5.892,0,0,1,.918.067v3.5" transform="translate(76.906 15.022)" fill="#fff"/>
    <path id="Path_5516" data-name="Path 5516" d="M127.419,28.651a8.61,8.61,0,0,1-.134,1.665H116.274a4.793,4.793,0,0,0,1.6,3.741,5.454,5.454,0,0,0,3.6,1.155,12.178,12.178,0,0,0,4.455-.782l.575,2.548A13.774,13.774,0,0,1,120.965,38a8.023,8.023,0,0,1-6.035-2.26,8.348,8.348,0,0,1-2.191-6.066,9.464,9.464,0,0,1,2.042-6.22,7.034,7.034,0,0,1,5.776-2.649,6.156,6.156,0,0,1,5.407,2.649,8.934,8.934,0,0,1,1.456,5.2m-3.5-.952a4.986,4.986,0,0,0-.713-2.821,3.206,3.206,0,0,0-2.925-1.53,3.482,3.482,0,0,0-2.921,1.5,5.477,5.477,0,0,0-1.086,2.854h7.645Z" transform="translate(81.337 15.009)" fill="#fff"/>
    <path id="Path_5517" data-name="Path 5517" d="M52.037,11.4a5.651,5.651,0,0,1-1.821,4.576A7.244,7.244,0,0,1,45.425,17.4a22.213,22.213,0,0,1-2.639-.134V6.19a19.474,19.474,0,0,1,3.107-.234,6.7,6.7,0,0,1,4.459,1.286A5.2,5.2,0,0,1,52.037,11.4m-1.9.05a4.114,4.114,0,0,0-1.043-3.023,4.112,4.112,0,0,0-3.049-1.052,7.635,7.635,0,0,0-1.453.117V15.91a9.526,9.526,0,0,0,1.219.05,4.267,4.267,0,0,0,3.2-1.152,4.612,4.612,0,0,0,1.129-3.357" transform="translate(30.869 4.297)" fill="#fff"/>
    <path id="Path_5518" data-name="Path 5518" d="M57.35,11.889a4.451,4.451,0,0,1-1.069,3.073A3.816,3.816,0,0,1,53.308,16.2a3.627,3.627,0,0,1-2.847-1.186A4.32,4.32,0,0,1,49.4,12.023,4.408,4.408,0,0,1,50.5,8.935a3.791,3.791,0,0,1,2.947-1.2,3.711,3.711,0,0,1,2.873,1.184,4.285,4.285,0,0,1,1.035,2.971m-1.871.059A3.67,3.67,0,0,0,55,10.021a1.782,1.782,0,0,0-1.618-.971,1.81,1.81,0,0,0-1.654.971,3.719,3.719,0,0,0-.484,1.959,3.67,3.67,0,0,0,.484,1.926,1.821,1.821,0,0,0,1.637.971,1.8,1.8,0,0,0,1.618-.988,3.647,3.647,0,0,0,.5-1.942" transform="translate(35.642 5.579)" fill="#fff"/>
    <path id="Path_5519" data-name="Path 5519" d="M66.8,7.829l-2.539,8.115H62.611L61.559,12.42A26.372,26.372,0,0,1,60.907,9.8h-.033a19.192,19.192,0,0,1-.652,2.622L59.1,15.944H57.433L55.045,7.829H56.9l.918,3.858q.333,1.369.551,2.6H58.4q.2-1.017.67-2.587l1.152-3.873h1.47l1.1,3.791q.4,1.387.651,2.672h.05a25.527,25.527,0,0,1,.551-2.672l.985-3.791H66.8Z" transform="translate(39.713 5.648)" fill="#fff"/>
    <path id="Path_5520" data-name="Path 5520" d="M70.289,16.015h-1.8V11.367q0-2.148-1.635-2.148a1.628,1.628,0,0,0-1.3.59,2.1,2.1,0,0,0-.5,1.391v4.813h-1.8V10.219q0-1.069-.065-2.322h1.585l.084,1.269h.05a2.606,2.606,0,0,1,.935-.98,3.049,3.049,0,0,1,1.635-.456,2.59,2.59,0,0,1,1.888.735,3.571,3.571,0,0,1,.935,2.689Z" transform="translate(45.579 5.577)" fill="#fff"/>
    <rect id="Rectangle_2583" data-name="Rectangle 2583" width="1.802" height="11.839" transform="translate(119.041 9.754)" fill="#fff"/>
    <path id="Path_5521" data-name="Path 5521" d="M79.7,11.889a4.451,4.451,0,0,1-1.069,3.073A3.818,3.818,0,0,1,75.657,16.2a3.622,3.622,0,0,1-2.847-1.186,4.32,4.32,0,0,1-1.059-2.988,4.408,4.408,0,0,1,1.093-3.088,3.79,3.79,0,0,1,2.945-1.2,3.715,3.715,0,0,1,2.875,1.184A4.284,4.284,0,0,1,79.7,11.889m-1.873.059a3.67,3.67,0,0,0-.484-1.926,1.779,1.779,0,0,0-1.616-.971,1.806,1.806,0,0,0-1.654.971,3.719,3.719,0,0,0-.484,1.959,3.671,3.671,0,0,0,.484,1.926,1.821,1.821,0,0,0,1.637.971,1.8,1.8,0,0,0,1.616-.988,3.632,3.632,0,0,0,.5-1.942" transform="translate(51.766 5.579)" fill="#fff"/>
    <path id="Path_5522" data-name="Path 5522" d="M84.232,16.013h-1.62l-.134-.935h-.05a2.778,2.778,0,0,1-2.37,1.119,2.446,2.446,0,0,1-1.852-.735,2.3,2.3,0,0,1-.635-1.653,2.521,2.521,0,0,1,1.245-2.271,6.46,6.46,0,0,1,3.5-.768V10.62q0-1.6-1.685-1.6a3.774,3.774,0,0,0-2.116.6l-.367-1.184a5.2,5.2,0,0,1,2.784-.7q3.181,0,3.185,3.357v2.988a12.669,12.669,0,0,0,.117,1.935m-1.873-2.789V11.973q-2.985-.052-2.985,1.635a1.222,1.222,0,0,0,.346.952,1.262,1.262,0,0,0,.881.317,1.822,1.822,0,0,0,1.1-.375,1.541,1.541,0,0,0,.654-1.277" transform="translate(55.964 5.579)" fill="#fff"/>
    <path id="Path_5523" data-name="Path 5523" d="M90.642,17.5h-1.6l-.084-1.3h-.05A2.7,2.7,0,0,1,86.3,17.689a3.054,3.054,0,0,1-2.438-1.152,4.487,4.487,0,0,1-.967-2.988,4.7,4.7,0,0,1,1.052-3.19,3.234,3.234,0,0,1,2.5-1.136,2.432,2.432,0,0,1,2.286,1.1h.034V5.666h1.806v9.652q0,1.185.064,2.186m-1.87-3.422V12.729a2.656,2.656,0,0,0-.05-.568,2.055,2.055,0,0,0-.652-1.093,1.773,1.773,0,0,0-1.207-.442,1.851,1.851,0,0,0-1.587.8,3.438,3.438,0,0,0-.578,2.054,3.2,3.2,0,0,0,.554,1.954,1.857,1.857,0,0,0,1.577.8,1.738,1.738,0,0,0,1.425-.668,2.224,2.224,0,0,0,.518-1.486" transform="translate(59.806 4.088)" fill="#fff"/>
    <path id="Path_5524" data-name="Path 5524" d="M99.689,11.889a4.451,4.451,0,0,1-1.069,3.073A3.813,3.813,0,0,1,95.647,16.2,3.631,3.631,0,0,1,92.8,15.011a4.32,4.32,0,0,1-1.059-2.988,4.408,4.408,0,0,1,1.093-3.088,3.793,3.793,0,0,1,2.949-1.2,3.708,3.708,0,0,1,2.871,1.184,4.285,4.285,0,0,1,1.035,2.971m-1.87.059a3.67,3.67,0,0,0-.484-1.926,1.784,1.784,0,0,0-1.62-.971,1.813,1.813,0,0,0-1.654.971,3.719,3.719,0,0,0-.484,1.959,3.67,3.67,0,0,0,.484,1.926,1.844,1.844,0,0,0,3.257-.017,3.663,3.663,0,0,0,.5-1.942" transform="translate(66.188 5.579)" fill="#fff"/>
    <path id="Path_5525" data-name="Path 5525" d="M104.973,16.015h-1.8V11.367q0-2.148-1.637-2.148a1.622,1.622,0,0,0-1.3.59,2.086,2.086,0,0,0-.5,1.391v4.813H97.926V10.219q0-1.069-.064-2.322h1.584l.084,1.269h.05a2.633,2.633,0,0,1,.935-.98,3.055,3.055,0,0,1,1.637-.456,2.589,2.589,0,0,1,1.887.735,3.565,3.565,0,0,1,.935,2.689Z" transform="translate(70.604 5.577)" fill="#fff"/>
    <path id="Path_5526" data-name="Path 5526" d="M111.117,10.027h-1.987v3.942c0,1,.353,1.5,1.052,1.5a3.177,3.177,0,0,0,.8-.084l.046,1.369a4.053,4.053,0,0,1-1.4.2,2.157,2.157,0,0,1-1.668-.651,3.183,3.183,0,0,1-.6-2.188V10.027h-1.186V8.676h1.186V7.189l1.768-.534V8.674h1.987v1.353Z" transform="translate(76.602 4.801)" fill="#fff"/>
    <path id="Path_5527" data-name="Path 5527" d="M117.548,17.5h-1.806V12.891q0-2.182-1.634-2.183a1.722,1.722,0,0,0-1.721,1.265,2.268,2.268,0,0,0-.084.649V17.5h-1.8V5.666h1.8v4.891h.034a2.727,2.727,0,0,1,2.438-1.334,2.514,2.514,0,0,1,1.856.735,3.7,3.7,0,0,1,.918,2.722V17.5" transform="translate(79.722 4.088)" fill="#fff"/>
    <path id="Path_5528" data-name="Path 5528" d="M123.341,11.578a4.357,4.357,0,0,1-.067.818h-5.411a2.366,2.366,0,0,0,.783,1.837,2.688,2.688,0,0,0,1.771.568,5.977,5.977,0,0,0,2.188-.384l.282,1.253a6.794,6.794,0,0,1-2.723.5,3.933,3.933,0,0,1-2.963-1.11,4.09,4.09,0,0,1-1.076-2.98,4.644,4.644,0,0,1,1-3.056,3.45,3.45,0,0,1,2.837-1.3,3.018,3.018,0,0,1,2.653,1.3,4.332,4.332,0,0,1,.723,2.553m-1.721-.467a2.429,2.429,0,0,0-.349-1.386,1.576,1.576,0,0,0-1.436-.752,1.713,1.713,0,0,0-1.436.735,2.731,2.731,0,0,0-.535,1.4h3.756" transform="translate(83.781 5.573)" fill="#fff"/>
  </g>
</svg>
