<svg id="Group_8409" data-name="Group 8409" xmlns="http://www.w3.org/2000/svg" width="220.838" height="65.434" viewBox="0 0 220.838 65.434">
  <g id="Group_8412" data-name="Group 8412">
    <path id="Path_5487" data-name="Path 5487" d="M212.659,65.433H8.179A8.2,8.2,0,0,1,0,57.254V8.179A8.2,8.2,0,0,1,8.179,0h204.48a8.2,8.2,0,0,1,8.179,8.179V57.254a8.2,8.2,0,0,1-8.179,8.179"/>
    <path id="Path_5489" data-name="Path 5489" d="M51.275,12.39a4.431,4.431,0,0,1-1.219,3.277,4.732,4.732,0,0,1-3.605,1.453,5.053,5.053,0,0,1-5.1-5.127,5.053,5.053,0,0,1,5.1-5.127,5.458,5.458,0,0,1,2.042.383,4.075,4.075,0,0,1,1.577,1.085l-.9.9a3.049,3.049,0,0,0-1.173-.856,3.859,3.859,0,0,0-1.541-.309,3.684,3.684,0,0,0-2.714,1.111,3.855,3.855,0,0,0-1.1,2.81,3.857,3.857,0,0,0,1.1,2.81,3.689,3.689,0,0,0,2.714,1.109,3.641,3.641,0,0,0,2.439-.823,3.277,3.277,0,0,0,1.124-2.261H46.451V11.649h4.755a4.207,4.207,0,0,1,.069.741" transform="translate(26.293 4.366)" fill="#fff"/>
    <path id="Path_5490" data-name="Path 5490" d="M51.275,12.39a4.431,4.431,0,0,1-1.219,3.277,4.732,4.732,0,0,1-3.605,1.453,5.053,5.053,0,0,1-5.1-5.127,5.053,5.053,0,0,1,5.1-5.127,5.458,5.458,0,0,1,2.042.383,4.075,4.075,0,0,1,1.577,1.085l-.9.9a3.049,3.049,0,0,0-1.173-.856,3.859,3.859,0,0,0-1.541-.309,3.684,3.684,0,0,0-2.714,1.111,3.855,3.855,0,0,0-1.1,2.81,3.857,3.857,0,0,0,1.1,2.81,3.689,3.689,0,0,0,2.714,1.109,3.641,3.641,0,0,0,2.439-.823,3.277,3.277,0,0,0,1.124-2.261H46.451V11.649h4.755A4.207,4.207,0,0,1,51.275,12.39Z" transform="translate(26.293 4.366)" fill="none" stroke="#fff" stroke-width="0.2"/>
    <path id="Path_5491" data-name="Path 5491" d="M54.255,7V8.206H49.786v3.113h4.029V12.5H49.786v3.113h4.469v1.206h-5.73V7Z" transform="translate(30.854 4.451)" fill="#fff"/>
    <path id="Path_5492" data-name="Path 5492" d="M54.255,7V8.206H49.786v3.113h4.029V12.5H49.786v3.113h4.469v1.206h-5.73V7Z" transform="translate(30.854 4.451)" fill="none" stroke="#fff" stroke-width="0.2"/>
    <path id="Path_5493" data-name="Path 5493" d="M56.836,8.206v8.609H55.574V8.206H52.833V7h6.745V8.206Z" transform="translate(33.593 4.451)" fill="#fff"/>
    <path id="Path_5494" data-name="Path 5494" d="M56.836,8.206v8.609H55.574V8.206H52.833V7h6.745V8.206Z" transform="translate(33.593 4.451)" fill="none" stroke="#fff" stroke-width="0.2"/>
    <rect id="Rectangle_2580" data-name="Rectangle 2580" width="1.261" height="9.815" transform="translate(98.047 11.451)" fill="#fff"/>
    <rect id="Rectangle_2581" data-name="Rectangle 2581" width="1.261" height="9.815" transform="translate(98.047 11.451)" fill="none" stroke="#fff" stroke-width="0.2"/>
    <path id="Path_5495" data-name="Path 5495" d="M65.684,8.206v8.609H64.423V8.206H61.681V7h6.745V8.206Z" transform="translate(39.22 4.451)" fill="#fff"/>
    <path id="Path_5496" data-name="Path 5496" d="M65.684,8.206v8.609H64.423V8.206H61.681V7h6.745V8.206Z" transform="translate(39.22 4.451)" fill="none" stroke="#fff" stroke-width="0.2"/>
    <path id="Path_5497" data-name="Path 5497" d="M78.414,11.993a4.976,4.976,0,0,1-1.453,3.646,5.1,5.1,0,0,1-7.183,0,4.976,4.976,0,0,1-1.453-3.646,4.974,4.974,0,0,1,1.453-3.646,5.081,5.081,0,0,1,7.183.013,4.96,4.96,0,0,1,1.453,3.633m-8.8,0a3.89,3.89,0,0,0,1.068,2.81,3.609,3.609,0,0,0,2.688,1.109A3.565,3.565,0,0,0,76.044,14.8a3.834,3.834,0,0,0,1.083-2.81,3.834,3.834,0,0,0-1.083-2.81,3.565,3.565,0,0,0-2.675-1.109,3.609,3.609,0,0,0-2.688,1.109,3.893,3.893,0,0,0-1.068,2.81" transform="translate(43.444 4.366)" fill="#fff"/>
    <path id="Path_5498" data-name="Path 5498" d="M78.414,11.993a4.976,4.976,0,0,1-1.453,3.646,5.1,5.1,0,0,1-7.183,0,4.976,4.976,0,0,1-1.453-3.646,4.974,4.974,0,0,1,1.453-3.646,5.081,5.081,0,0,1,7.183.013A4.96,4.96,0,0,1,78.414,11.993Zm-8.8,0a3.89,3.89,0,0,0,1.068,2.81,3.609,3.609,0,0,0,2.688,1.109A3.565,3.565,0,0,0,76.044,14.8a3.834,3.834,0,0,0,1.083-2.81,3.834,3.834,0,0,0-1.083-2.81,3.565,3.565,0,0,0-2.675-1.109,3.609,3.609,0,0,0-2.688,1.109A3.893,3.893,0,0,0,69.613,11.993Z" transform="translate(43.444 4.366)" fill="none" stroke="#fff" stroke-width="0.2"/>
    <path id="Path_5499" data-name="Path 5499" d="M76.835,16.815H75.574V7H77.11l4.77,7.634h.054l-.054-1.891V7h1.261v9.815H81.826L76.835,8.809h-.054l.054,1.893Z" transform="translate(48.053 4.451)" fill="#fff"/>
    <path id="Path_5500" data-name="Path 5500" d="M76.835,16.815H75.574V7H77.11l4.77,7.634h.054l-.054-1.891V7h1.261v9.815H81.826L76.835,8.809h-.054l.054,1.893Z" transform="translate(48.053 4.451)" fill="none" stroke="#fff" stroke-width="0.2"/>
    <path id="Path_5501" data-name="Path 5501" d="M85.363,24.744A6.957,6.957,0,1,0,92.347,31.7a6.857,6.857,0,0,0-6.983-6.957m0,11.173A4.025,4.025,0,0,1,81.436,31.7a3.937,3.937,0,1,1,7.854,0,4.024,4.024,0,0,1-3.926,4.216M70.127,24.744A6.957,6.957,0,1,0,77.112,31.7a6.857,6.857,0,0,0-6.985-6.957m0,11.173A4.025,4.025,0,0,1,66.2,31.7a3.937,3.937,0,1,1,7.854,0,4.025,4.025,0,0,1-3.928,4.216M52.005,26.878v2.951h7.062a6.16,6.16,0,0,1-1.606,3.715,7.231,7.231,0,0,1-5.456,2.161,7.854,7.854,0,0,1,0-15.706,7.524,7.524,0,0,1,5.323,2.107l2.082-2.081a10.3,10.3,0,0,0-7.405-2.979A10.957,10.957,0,0,0,41.042,27.853a10.956,10.956,0,0,0,10.963,10.8,9.88,9.88,0,0,0,7.536-3.031,9.753,9.753,0,0,0,2.557-6.9,9.536,9.536,0,0,0-.159-1.844Zm74.117,2.292a6.468,6.468,0,0,0-5.956-4.427A6.611,6.611,0,0,0,113.6,31.7a6.808,6.808,0,0,0,6.9,6.957,6.923,6.923,0,0,0,5.8-3.084l-2.372-1.582a3.975,3.975,0,0,1-3.427,1.924,3.541,3.541,0,0,1-3.373-2.107l9.3-3.849Zm-9.488,2.32a3.817,3.817,0,0,1,3.636-4.059,2.693,2.693,0,0,1,2.583,1.476Zm-7.564,6.746h3.057V17.785H109.07ZM104.063,26.3h-.1a4.822,4.822,0,0,0-3.663-1.554,6.963,6.963,0,0,0,0,13.914,4.74,4.74,0,0,0,3.663-1.582h.1v1c0,2.663-1.422,4.086-3.715,4.086a3.85,3.85,0,0,1-3.506-2.478l-2.662,1.107a6.63,6.63,0,0,0,6.167,4.111c3.584,0,6.615-2.109,6.615-7.247V25.164h-2.9Zm-3.5,9.619a3.991,3.991,0,0,1-3.874-4.189,4.024,4.024,0,0,1,3.874-4.243c2.082,0,3.715,1.793,3.715,4.243a3.886,3.886,0,0,1-3.715,4.189m39.883-18.13h-7.314v20.45h3.051V30.489h4.263a6.481,6.481,0,0,0,6.709-6.352,6.48,6.48,0,0,0-6.709-6.35m.079,9.856h-4.342v-7.01h4.342a3.506,3.506,0,1,1,0,7.01m18.865-2.936a5.734,5.734,0,0,0-5.447,3.129l2.711,1.132a2.891,2.891,0,0,1,2.789-1.5c1.579,0,3.183.947,3.21,2.632v.209a6.752,6.752,0,0,0-3.183-.788c-2.92,0-5.894,1.6-5.894,4.6,0,2.737,2.395,4.5,5.078,4.5a4.307,4.307,0,0,0,3.895-2h.1V38.2h2.946V30.361c0-3.63-2.709-5.655-6.208-5.655m-.368,11.207c-1,0-2.395-.5-2.395-1.737,0-1.579,1.736-2.182,3.236-2.182a5.429,5.429,0,0,1,2.789.684,3.7,3.7,0,0,1-3.63,3.236m17.31-10.761-3.5,8.866h-.1l-3.632-8.866H165.8l5.446,12.391-3.1,6.893h3.183l8.393-19.285ZM148.834,38.236h3.052V17.786h-3.052Z" transform="translate(26.096 10.839)" fill="#fff"/>
    <path id="Path_5502" data-name="Path 5502" d="M27.487,19.424,10.07,37.909l0,.011A4.708,4.708,0,0,0,17,40.757l.056-.033,19.6-11.312Z" transform="translate(6.403 12.35)" fill="#ea4335"/>
    <path id="Path_5503" data-name="Path 5503" d="M38.491,19.411l-.016-.011L30.01,14.494l-9.535,8.485,9.57,9.566,8.418-4.857a4.707,4.707,0,0,0,.028-8.277" transform="translate(13.019 9.216)" fill="#fbbc04"/>
    <path id="Path_5504" data-name="Path 5504" d="M10.132,9.277a4.618,4.618,0,0,0-.16,1.211V43.152a4.53,4.53,0,0,0,.162,1.209L28.148,26.349Z" transform="translate(6.341 5.899)" fill="#4285f4"/>
    <path id="Path_5505" data-name="Path 5505" d="M27.616,28.178l9.013-9.012L17.048,7.813a4.713,4.713,0,0,0-6.977,2.817l0,0Z" transform="translate(6.403 4.541)" fill="#34a853"/>
  </g>
</svg>
