<svg xmlns="http://www.w3.org/2000/svg" xmlns:xlink="http://www.w3.org/1999/xlink" width="67.334" height="68.682" viewBox="0 0 67.334 68.682">
  <defs>
    <linearGradient id="linear-gradient" x1="1" y1="0.567" x2="0.031" y2="0.622" gradientUnits="objectBoundingBox">
      <stop offset="0" stop-color="#a101fe"/>
      <stop offset="1" stop-color="#fe402a"/>
    </linearGradient>
  </defs>
  <g id="Instant_Help" data-name="Instant Help" transform="translate(-101.514 -29.389)">
    <path id="Path_5612" data-name="Path 5612" d="M167.982,137.336c-1.307-1.691-3.613-2.076-6.072-1.076-.615.231-1.537.615-2.613,1.076l4.458-12.222a4.264,4.264,0,0,0-.154-3.228,4.119,4.119,0,0,0-2.383-2.152,3.625,3.625,0,0,0-2.383-.077l.538-1.537a4.264,4.264,0,0,0-.154-3.228,4.119,4.119,0,0,0-2.383-2.152,4.2,4.2,0,0,0-5.3,2.46,4.587,4.587,0,0,0-1.922-1.461,4.286,4.286,0,0,0-5.381,2.537l-.769,2.152a3.892,3.892,0,0,0-1.922-1.383,4.262,4.262,0,0,0-5.381,2.613l-2.46,6.918-1.153-2.921a4.247,4.247,0,0,0-2.229-2.383,3.888,3.888,0,0,0-3.074-.077,4.352,4.352,0,0,0-1.845,1.461l-.846-2.076a4.247,4.247,0,0,0-2.229-2.383,3.888,3.888,0,0,0-3.074-.077,4.352,4.352,0,0,0-1.845,1.461,4.5,4.5,0,0,0-2.229-2.229,3.888,3.888,0,0,0-3.074-.077,4.257,4.257,0,0,0-2.306,5.458l.615,1.537a3.952,3.952,0,0,0-2.306.154,4.257,4.257,0,0,0-2.306,5.458l5.458,13.836-3.3-2a4.322,4.322,0,0,0-3-.769,3.926,3.926,0,0,0-2.691,1.691,4.333,4.333,0,0,0,.922,5.842c.69.69,9.607,7.761,12.835,10.067a14.322,14.322,0,0,0,8.225,2.613,15.814,15.814,0,0,0,5.842-1.153,15.1,15.1,0,0,0,7.226-6.072,13.548,13.548,0,0,0,3,1.461,16.608,16.608,0,0,0,5.458.922,14.923,14.923,0,0,0,8.917-2.921c3.228-2.383,12.068-9.762,12.606-10.223a4.229,4.229,0,0,0,.692-5.842Zm-38.664,20.908a12.912,12.912,0,0,1-12.3-1.23c-3.151-2.306-12.375-9.685-12.452-9.762a2.5,2.5,0,0,1-.538-3.305,2.123,2.123,0,0,1,1.461-.922,2.317,2.317,0,0,1,1.614.384.075.075,0,0,1,.077.077l5.765,3.459a.907.907,0,0,0,1.307-1.153l-6.534-16.449a2.294,2.294,0,0,1,1.23-3,2.144,2.144,0,0,1,1.537.077,2.877,2.877,0,0,1,1.307,1.23l3.459,8.917a.98.98,0,0,0,.846.615.462.462,0,0,0,.307-.077,1,1,0,0,0,.538-1.23l-3.382-8.609v-.077c0-.077-.077-.154-.077-.231l-1.845-4.766a2.294,2.294,0,0,1,1.23-3,2.154,2.154,0,0,1,1.691,0,2.291,2.291,0,0,1,1.23,1.307l1.23,3.228,4,10.377a.98.98,0,0,0,.846.615.462.462,0,0,0,.307-.077,1,1,0,0,0,.538-1.23l-3.843-10.069-.077-.231a2.294,2.294,0,0,1,1.23-3,2.154,2.154,0,0,1,1.691,0,2.291,2.291,0,0,1,1.23,1.307l2.076,5.227c0,.077,0,.077.077.154l2.767,7.3a.949.949,0,1,0,1.768-.692l-2.844-7.3a2.294,2.294,0,0,1,1.23-3,2.154,2.154,0,0,1,1.691,0,2.291,2.291,0,0,1,1.23,1.307l6.149,15.988a14.027,14.027,0,0,1-7.765,17.832Zm36.742-16.526c-.077.077-9.378,7.763-12.529,10.147A13.4,13.4,0,0,1,141,153.555a12.428,12.428,0,0,1-2.691-1.307,3.74,3.74,0,0,0,.231-.538,16.345,16.345,0,0,0,.384-11.914l-4.074-10.454L138,120.348a2.356,2.356,0,0,1,2.921-1.461,2.712,2.712,0,0,1,1.307,1.153,2.352,2.352,0,0,1,.077,1.768l-2.767,7.841a1.038,1.038,0,0,0,.538,1.23c.077,0,.231.077.307.077a1,1,0,0,0,.922-.615l2.767-7.841c0-.077,0-.077.077-.154l1.922-5.3A2.356,2.356,0,0,1,149,115.581a2.712,2.712,0,0,1,1.307,1.153,2.536,2.536,0,0,1,.077,1.845l-.077.231-3.843,11.146a1.006,1.006,0,0,0,.615,1.23c.077,0,.231.077.307.077a1,1,0,0,0,.922-.615l4-11.376,1.153-3.228a2.356,2.356,0,0,1,2.921-1.461,2.712,2.712,0,0,1,1.307,1.153,2.352,2.352,0,0,1,.077,1.768l-1.691,4.612c-.077.154-.077.231-.154.384,0,.077,0,.154-.077.154l-3.459,9.532a1.038,1.038,0,0,0,.538,1.23c.077,0,.231.077.307.077a1,1,0,0,0,.922-.615l3.613-9.993a2.43,2.43,0,0,1,2.844-1.307,2.712,2.712,0,0,1,1.307,1.153,2.352,2.352,0,0,1,.077,1.768l-5.073,13.759c-.846.307-1.614.615-2,.769-4.843-1.845-7.456.307-9.608,2a.93.93,0,1,0,1.153,1.461c2.076-1.691,4-3.3,8.071-1.614a1.069,1.069,0,0,0,.692,0c.231-.077,5.534-2.152,7.379-2.921,1-.384,2.844-.922,3.843.461a2.327,2.327,0,0,1-.383,3.307Z" transform="translate(0 -71.703)" fill="url(#linear-gradient)"/>
    <path id="Path_5613" data-name="Path 5613" d="M186.9,89.091l4.766,3.074a1.113,1.113,0,0,0,.538.154.847.847,0,0,0,.769-.461.914.914,0,0,0-.307-1.307L187.9,87.477a.949.949,0,0,0-1,1.614Z" transform="translate(-73.266 -49.977)" fill="url(#linear-gradient)"/>
    <path id="Path_5614" data-name="Path 5614" d="M254.919,38.345a.927.927,0,0,0,.922.615.462.462,0,0,0,.307-.077,1.008,1.008,0,0,0,.615-1.23l-2.613-7.61a.972.972,0,1,0-1.845.615Z" transform="translate(-130.06 0)" fill="url(#linear-gradient)"/>
    <path id="Path_5615" data-name="Path 5615" d="M327.962,44.852a.462.462,0,0,0,.307.077.833.833,0,0,0,.846-.615l1.922-5.3a.949.949,0,0,0-1.768-.692l-1.922,5.3a1.009,1.009,0,0,0,.616,1.23Z" transform="translate(-194.801 -7.198)" fill="url(#linear-gradient)"/>
    <path id="Path_5616" data-name="Path 5616" d="M363.715,475.748a.957.957,0,0,0-1.153.615l-1.614,5.381a.957.957,0,0,0,.615,1.153c.077,0,.154.077.307.077a.966.966,0,0,0,.922-.692l1.614-5.381a1.006,1.006,0,0,0-.692-1.153Z" transform="translate(-223.789 -385.057)" fill="url(#linear-gradient)"/>
    <path id="Path_5617" data-name="Path 5617" d="M428.189,462.24a.949.949,0,1,0-1.768.692l3.074,7.456a.98.98,0,0,0,.846.615.7.7,0,0,0,.384-.077,1.039,1.039,0,0,0,.538-1.23Z" transform="translate(-280.269 -372.932)" fill="url(#linear-gradient)"/>
    <path id="Path_5618" data-name="Path 5618" d="M481.561,434.422l-4.919-2.767a.963.963,0,0,0-.922,1.691l4.919,2.767a1.1,1.1,0,0,0,.461.154,1.063,1.063,0,0,0,.846-.461,1.08,1.08,0,0,0-.384-1.384Z" transform="translate(-322.419 -346.959)" fill="url(#linear-gradient)"/>
  </g>
</svg>
