<svg xmlns="http://www.w3.org/2000/svg" width="69.49" height="70.88" viewBox="0 0 69.49 70.88">
  <g id="noun-high-five-1154833" transform="translate(-101.513 -29.389)">
    <path id="Path_5612" data-name="Path 5612" d="M170.11,138.131c-1.348-1.745-3.728-2.142-6.267-1.111-.635.238-1.586.635-2.7,1.111l4.6-12.613a4.4,4.4,0,0,0-.159-3.332,4.251,4.251,0,0,0-2.459-2.221,3.741,3.741,0,0,0-2.459-.079l.556-1.586a4.4,4.4,0,0,0-.159-3.332,4.251,4.251,0,0,0-2.459-2.221,4.33,4.33,0,0,0-5.474,2.539,4.734,4.734,0,0,0-1.983-1.507A4.424,4.424,0,0,0,145.6,116.4l-.794,2.221a4.016,4.016,0,0,0-1.983-1.428,4.4,4.4,0,0,0-5.553,2.7l-2.539,7.139-1.19-3.015a4.383,4.383,0,0,0-2.3-2.459,4.012,4.012,0,0,0-3.173-.079,4.491,4.491,0,0,0-1.9,1.507l-.873-2.142a4.383,4.383,0,0,0-2.3-2.459,4.013,4.013,0,0,0-3.173-.079,4.491,4.491,0,0,0-1.9,1.507,4.639,4.639,0,0,0-2.3-2.3,4.012,4.012,0,0,0-3.173-.079,4.393,4.393,0,0,0-2.38,5.633l.635,1.586a4.078,4.078,0,0,0-2.38.159,4.393,4.393,0,0,0-2.38,5.633l5.633,14.279-3.411-2.062a4.46,4.46,0,0,0-3.094-.794,4.051,4.051,0,0,0-2.777,1.745,4.472,4.472,0,0,0,.952,6.029c.712.712,9.914,8.01,13.246,10.39a14.78,14.78,0,0,0,8.488,2.7,16.32,16.32,0,0,0,6.029-1.19,15.58,15.58,0,0,0,7.457-6.267,13.981,13.981,0,0,0,3.094,1.507,17.139,17.139,0,0,0,5.633.952,15.4,15.4,0,0,0,9.2-3.015c3.332-2.459,12.455-10.075,13.01-10.551a4.364,4.364,0,0,0,.714-6.029Zm-39.9,21.577a13.325,13.325,0,0,1-12.693-1.269c-3.252-2.38-12.771-10-12.85-10.075a2.577,2.577,0,0,1-.556-3.411,2.191,2.191,0,0,1,1.507-.952,2.391,2.391,0,0,1,1.666.4.077.077,0,0,1,.079.079l5.95,3.57a.936.936,0,0,0,1.348-1.19l-6.743-16.976a2.368,2.368,0,0,1,1.269-3.094,2.213,2.213,0,0,1,1.586.079,2.969,2.969,0,0,1,1.348,1.269l3.57,9.2a1.011,1.011,0,0,0,.873.635.477.477,0,0,0,.317-.079,1.036,1.036,0,0,0,.556-1.269l-3.491-8.885v-.079c0-.079-.079-.159-.079-.238l-1.9-4.918a2.368,2.368,0,0,1,1.269-3.094,2.223,2.223,0,0,1,1.745,0,2.364,2.364,0,0,1,1.269,1.348l1.269,3.332,4.125,10.709a1.011,1.011,0,0,0,.873.635.477.477,0,0,0,.317-.079,1.036,1.036,0,0,0,.556-1.269l-3.966-10.392-.079-.238a2.368,2.368,0,0,1,1.269-3.094,2.223,2.223,0,0,1,1.745,0,2.364,2.364,0,0,1,1.269,1.348l2.142,5.394c0,.079,0,.079.079.159L128.7,134.8a.98.98,0,1,0,1.825-.714l-2.935-7.536a2.368,2.368,0,0,1,1.269-3.094,2.223,2.223,0,0,1,1.745,0,2.365,2.365,0,0,1,1.269,1.348l6.346,16.5a14.477,14.477,0,0,1-8.014,18.4Zm37.918-17.055c-.079.079-9.678,8.012-12.93,10.471a13.825,13.825,0,0,1-12.93,1.745,12.826,12.826,0,0,1-2.777-1.348,3.858,3.858,0,0,0,.238-.556,16.868,16.868,0,0,0,.4-12.3l-4.2-10.788,3.253-9.281a2.431,2.431,0,0,1,3.015-1.507,2.8,2.8,0,0,1,1.349,1.19,2.427,2.427,0,0,1,.079,1.824l-2.856,8.092a1.072,1.072,0,0,0,.556,1.269c.079,0,.238.079.317.079a1.03,1.03,0,0,0,.952-.635l2.856-8.092c0-.079,0-.079.079-.159l1.983-5.474a2.431,2.431,0,0,1,3.015-1.507,2.8,2.8,0,0,1,1.349,1.19,2.617,2.617,0,0,1,.079,1.9l-.079.238-3.966,11.5a1.038,1.038,0,0,0,.635,1.269c.079,0,.238.079.317.079a1.03,1.03,0,0,0,.952-.635l4.125-11.74,1.19-3.332a2.431,2.431,0,0,1,3.015-1.507,2.8,2.8,0,0,1,1.348,1.19,2.427,2.427,0,0,1,.079,1.824l-1.745,4.76c-.079.159-.079.238-.159.4,0,.079,0,.159-.079.159l-3.57,9.837a1.072,1.072,0,0,0,.556,1.269c.079,0,.238.079.317.079a1.03,1.03,0,0,0,.952-.635l3.728-10.313a2.508,2.508,0,0,1,2.935-1.348,2.8,2.8,0,0,1,1.348,1.19,2.427,2.427,0,0,1,.079,1.824l-5.236,14.2c-.873.317-1.666.635-2.062.793-5-1.9-7.695.317-9.916,2.062a.96.96,0,0,0,1.19,1.507c2.142-1.745,4.125-3.411,8.329-1.666a1.1,1.1,0,0,0,.714,0c.238-.079,5.712-2.221,7.616-3.015,1.031-.4,2.935-.952,3.966.476a2.4,2.4,0,0,1-.4,3.413Z" transform="translate(0 -71.338)" fill="#fff"/>
    <path id="Path_5613" data-name="Path 5613" d="M186.918,89.148l4.918,3.173a1.149,1.149,0,0,0,.556.159.874.874,0,0,0,.794-.476.943.943,0,0,0-.317-1.348l-4.918-3.173a.98.98,0,0,0-1.032,1.666Z" transform="translate(-72.893 -49.722)" fill="#fff"/>
    <path id="Path_5614" data-name="Path 5614" d="M255,38.632a.956.956,0,0,0,.952.635.477.477,0,0,0,.317-.079,1.04,1.04,0,0,0,.635-1.269l-2.7-7.854a1,1,0,1,0-1.9.635Z" transform="translate(-129.397)" fill="#fff"/>
    <path id="Path_5615" data-name="Path 5615" d="M327.983,45.08a.477.477,0,0,0,.317.079.859.859,0,0,0,.873-.635l1.983-5.474a.98.98,0,0,0-1.825-.714l-1.983,5.474a1.041,1.041,0,0,0,.635,1.269Z" transform="translate(-193.809 -7.161)" fill="#fff"/>
    <path id="Path_5616" data-name="Path 5616" d="M363.805,475.75a.987.987,0,0,0-1.19.635l-1.666,5.553a.987.987,0,0,0,.635,1.19c.079,0,.159.079.317.079a1,1,0,0,0,.952-.714l1.666-5.553a1.039,1.039,0,0,0-.714-1.19Z" transform="translate(-222.65 -383.096)" fill="#fff"/>
    <path id="Path_5617" data-name="Path 5617" d="M428.247,462.258a.98.98,0,1,0-1.825.714l3.173,7.695a1.011,1.011,0,0,0,.873.635.717.717,0,0,0,.4-.079,1.073,1.073,0,0,0,.556-1.269Z" transform="translate(-278.841 -371.032)" fill="#fff"/>
    <path id="Path_5618" data-name="Path 5618" d="M481.764,434.514l-5.077-2.856a.994.994,0,0,0-.952,1.745l5.077,2.856a1.13,1.13,0,0,0,.476.159,1.1,1.1,0,0,0,.873-.476,1.115,1.115,0,0,0-.4-1.428Z" transform="translate(-320.777 -345.191)" fill="#fff"/>
  </g>
</svg>
