<svg xmlns="http://www.w3.org/2000/svg" xmlns:xlink="http://www.w3.org/1999/xlink" width="41.993" height="61.838" viewBox="0 0 41.993 61.838">
  <defs>
    <linearGradient id="linear-gradient" x1="1" y1="0.5" x2="0" y2="0.5" gradientUnits="objectBoundingBox">
      <stop offset="0" stop-color="#a101fe"/>
      <stop offset="1" stop-color="#fe402a"/>
    </linearGradient>
  </defs>
  <g id="Past_Invoices" data-name="Past Invoices" transform="translate(-164.317 -6.56)">
    <path id="Path_5620" data-name="Path 5620" d="M199.127,6.561H171.5a7.191,7.191,0,0,0-7.183,7.183V63.6a.755.755,0,0,0,.221.533l4.048,4.049a.754.754,0,0,0,1.066,0l3.516-3.515,3.515,3.515a.754.754,0,0,0,1.066,0l3.516-3.515,3.515,3.515a.754.754,0,0,0,1.066,0l3.516-3.515,3.515,3.515a.754.754,0,0,0,1.066,0l3.515-3.515,3.516,3.515a.754.754,0,0,0,1.066,0l4.048-4.048a.755.755,0,0,0,.221-.533V13.744a7.191,7.191,0,0,0-7.183-7.183ZM204.8,63.285l-3.294,3.294-3.516-3.515a.754.754,0,0,0-1.066,0l-3.515,3.515L189.9,63.064a.754.754,0,0,0-1.066,0l-3.516,3.515L181.8,63.064a.754.754,0,0,0-1.066,0l-3.516,3.515L173.7,63.064a.754.754,0,0,0-1.066,0l-3.516,3.515-3.294-3.295V13.744A5.682,5.682,0,0,1,171.5,8.069h27.627a5.681,5.681,0,0,1,5.675,5.675Z" fill="url(#linear-gradient)"/>
    <path id="Path_5621" data-name="Path 5621" d="M307.058,97.121h-10.82a.754.754,0,1,0,0,1.508h10.82a.754.754,0,0,0,0-1.508Z" transform="translate(-116.335 -80.32)" fill="url(#linear-gradient)"/>
    <path id="Path_5622" data-name="Path 5622" d="M235.93,170.93H220.576a.754.754,0,1,0,0,1.508H235.93a.754.754,0,0,0,0-1.508Z" transform="translate(-49.229 -145.783)" fill="url(#linear-gradient)"/>
    <path id="Path_5623" data-name="Path 5623" d="M452.113,170.93h-1.974a.754.754,0,0,0,0,1.508h1.974a.754.754,0,1,0,0-1.508Z" transform="translate(-252.833 -145.783)" fill="url(#linear-gradient)"/>
    <path id="Path_5624" data-name="Path 5624" d="M235.93,236.55H220.576a.754.754,0,1,0,0,1.508H235.93a.754.754,0,0,0,0-1.508Z" transform="translate(-49.229 -203.983)" fill="url(#linear-gradient)"/>
    <path id="Path_5625" data-name="Path 5625" d="M452.113,236.55h-1.974a.754.754,0,0,0,0,1.508h1.974a.754.754,0,1,0,0-1.508Z" transform="translate(-252.833 -203.983)" fill="url(#linear-gradient)"/>
    <path id="Path_5626" data-name="Path 5626" d="M235.93,302.16H220.576a.754.754,0,0,0,0,1.508H235.93a.754.754,0,0,0,0-1.508Z" transform="translate(-49.229 -262.174)" fill="url(#linear-gradient)"/>
    <path id="Path_5627" data-name="Path 5627" d="M452.113,302.16h-1.974a.754.754,0,0,0,0,1.508h1.974a.754.754,0,1,0,0-1.508Z" transform="translate(-252.833 -262.174)" fill="url(#linear-gradient)"/>
    <path id="Path_5628" data-name="Path 5628" d="M235.93,367.78H220.576a.754.754,0,1,0,0,1.508H235.93a.754.754,0,0,0,0-1.508Z" transform="translate(-49.229 -320.374)" fill="url(#linear-gradient)"/>
    <path id="Path_5629" data-name="Path 5629" d="M452.113,367.78h-1.974a.754.754,0,0,0,0,1.508h1.974a.754.754,0,1,0,0-1.508Z" transform="translate(-252.833 -320.374)" fill="url(#linear-gradient)"/>
    <path id="Path_5630" data-name="Path 5630" d="M235.93,433.39H220.576a.754.754,0,1,0,0,1.508H235.93a.754.754,0,0,0,0-1.508Z" transform="translate(-49.229 -378.565)" fill="url(#linear-gradient)"/>
    <path id="Path_5631" data-name="Path 5631" d="M452.113,433.39h-1.974a.754.754,0,0,0,0,1.508h1.974a.754.754,0,1,0,0-1.508Z" transform="translate(-252.833 -378.565)" fill="url(#linear-gradient)"/>
  </g>
</svg>
