<svg xmlns="http://www.w3.org/2000/svg" width="59.737" height="59.742" viewBox="0 0 59.737 59.742">
  <g id="noun-setting-5630950" transform="translate(-88.454 -18.386)">
    <path id="Path_5619" data-name="Path 5619" d="M126.886,26.538l.8.332a1.657,1.657,0,0,0,.946.109,1.639,1.639,0,0,0,.852-.463l2.154-2.154a3.561,3.561,0,0,1,5.03,0l5.55,5.55a3.565,3.565,0,0,1,1.038,2.517,3.529,3.529,0,0,1-1.036,2.515l-2.2,2.195a1.626,1.626,0,0,0-.42.811,1.657,1.657,0,0,0,.119.967l.342.821a1.592,1.592,0,0,0,1.529,1.038h3.044a3.564,3.564,0,0,1,3.559,3.559v7.85a3.57,3.57,0,0,1-3.559,3.559h-3.044a1.658,1.658,0,0,0-.93.274,1.634,1.634,0,0,0-.6.764c-.111.28-.228.568-.351.842a1.59,1.59,0,0,0,.355,1.8c.7.754,1.491,1.469,2.21,2.215a3.559,3.559,0,0,1-.058,4.968l-5.55,5.55a3.564,3.564,0,0,1-2.515,1.038,3.526,3.526,0,0,1-2.515-1.036L129.486,70a1.6,1.6,0,0,0-1.819-.347c-.282.113-.56.246-.846.351a1.587,1.587,0,0,0-1.013,1.517v3.044a3.564,3.564,0,0,1-3.559,3.559H114.4a3.564,3.564,0,0,1-3.559-3.559V71.527a1.658,1.658,0,0,0-.274-.93,1.638,1.638,0,0,0-.764-.6l-.844-.351a1.593,1.593,0,0,0-1.8.353l-2.214,2.21a3.559,3.559,0,0,1-4.968-.058L94.43,66.6a3.564,3.564,0,0,1-1.038-2.515,3.526,3.526,0,0,1,1.036-2.515l2.154-2.154a1.634,1.634,0,0,0,.463-.852,1.657,1.657,0,0,0-.117-.967l-.342-.821a1.592,1.592,0,0,0-1.529-1.038H92.013a3.564,3.564,0,0,1-3.559-3.558v-7.85a3.564,3.564,0,0,1,3.559-3.558h3.044a1.592,1.592,0,0,0,1.529-1.038l.351-.842a1.662,1.662,0,0,0,.109-.948,1.632,1.632,0,0,0-.459-.852l-2.156-2.153a3.564,3.564,0,0,1,0-5.032l5.55-5.55a3.565,3.565,0,0,1,2.517-1.038,3.529,3.529,0,0,1,2.515,1.036l2.153,2.156a1.6,1.6,0,0,0,1.821.346l.819-.342a1.6,1.6,0,0,0,1.038-1.529V21.945a3.564,3.564,0,0,1,3.559-3.559h7.848a3.564,3.564,0,0,1,3.559,3.559v3.044a1.658,1.658,0,0,0,.274.93,1.64,1.64,0,0,0,.764.6l.046.019Zm-8.568,3.039a18.633,18.633,0,0,1,13.21,5.471l.054.058a18.671,18.671,0,0,1-.052,26.358l-.006.006a18.682,18.682,0,1,1-13.206-31.9ZM130.172,36.4a15.46,15.46,0,1,0,.048.045Zm-3.658-7.956-.368-.148a3.525,3.525,0,0,1-2.26-3.311V21.946a1.645,1.645,0,0,0-1.641-1.641H114.4a1.645,1.645,0,0,0-1.641,1.641v3.044a3.523,3.523,0,0,1-2.262,3.309l-.76.314a3.52,3.52,0,0,1-3.933-.746l-2.154-2.154a1.644,1.644,0,0,0-2.319,0l-5.55,5.55a1.646,1.646,0,0,0,0,2.319l2.153,2.153a3.59,3.59,0,0,1,.988,1.855,3.533,3.533,0,0,1-.234,2.054l-.328.792a3.525,3.525,0,0,1-3.307,2.25H92.006a1.645,1.645,0,0,0-1.641,1.641v7.85a1.645,1.645,0,0,0,1.641,1.641H95.05a3.525,3.525,0,0,1,3.311,2.26l.314.761a3.519,3.519,0,0,1-.744,3.931l-2.154,2.154a1.642,1.642,0,0,0,0,2.318l5.55,5.55a1.641,1.641,0,0,0,1.161.482,1.668,1.668,0,0,0,1.122-.441l2.189-2.193a3.513,3.513,0,0,1,3.91-.754c.263.106.52.223.785.324a3.525,3.525,0,0,1,2.26,3.311v3.043a1.645,1.645,0,0,0,1.641,1.641h7.85a1.645,1.645,0,0,0,1.641-1.641V71.522a3.52,3.52,0,0,1,2.221-3.294l.8-.33a3.52,3.52,0,0,1,3.933.746l2.153,2.153a1.642,1.642,0,0,0,2.318,0l5.55-5.55a1.641,1.641,0,0,0,.482-1.161,1.668,1.668,0,0,0-.441-1.122c-.746-.7-1.443-1.5-2.193-2.191a3.511,3.511,0,0,1-.754-3.91l.328-.794a3.519,3.519,0,0,1,3.305-2.25h3.044a1.638,1.638,0,0,0,1.641-1.64v-7.85a1.645,1.645,0,0,0-1.641-1.641h-3.044a3.523,3.523,0,0,1-3.311-2.261l-.314-.76a3.509,3.509,0,0,1,.687-3.872l2.21-2.215a1.644,1.644,0,0,0,0-2.319l-5.55-5.55a1.644,1.644,0,0,0-2.318,0l-2.154,2.154a3.519,3.519,0,0,1-3.91.756l-.414-.177Z" fill="#fff"/>
  </g>
</svg>
